<?xml version="1.0" encoding="UTF-8" standalone="no"?>
<svg width="104px" height="59px" viewBox="0 0 104 59" version="1.1" xmlns="http://www.w3.org/2000/svg" xmlns:xlink="http://www.w3.org/1999/xlink" xmlns:sketch="http://www.bohemiancoding.com/sketch/ns">
    <!-- Generator: Sketch 3.2.2 (9983) - http://www.bohemiancoding.com/sketch -->
    <title>Oval 4</title>
    <desc>Created with Sketch.</desc>
    <defs>
        <filter x="-50%" y="-50%" width="200%" height="200%" filterUnits="objectBoundingBox" id="filter-1">
            <feGaussianBlur stdDeviation="6.6796875" in="SourceGraphic" result="blur"></feGaussianBlur>
        </filter>
        <filter x="-50%" y="-50%" width="200%" height="200%" filterUnits="objectBoundingBox" id="filter-2">
            <feGaussianBlur stdDeviation="1" in="SourceGraphic" result="blur"></feGaussianBlur>
        </filter>
    </defs>
    <g id="Page-4" stroke="none" stroke-width="1" fill="none" fill-rule="evenodd" sketch:type="MSPage">
        <circle id="Oval-10" stroke="#FFFFFF" stroke-width="15" filter="url(#filter-1)" sketch:type="MSShapeGroup" cx="52" cy="25" r="290"></circle>
        <circle id="Oval-8" stroke="#3E4478" stroke-width="20" sketch:type="MSShapeGroup" cx="52" cy="29" r="300"></circle>
        <circle id="Oval-9" stroke="#BDC3F7" stroke-width="8" filter="url(#filter-2)" sketch:type="MSShapeGroup" cx="52" cy="29" r="125"></circle>
        <path d="M103.092754,3.85498056 L103.092755,0.000484792904 L57.5622063,0.000484792904 L57.5622063,6.60925264 L57.5622063,58.9710286 L62.2373047,58.9710277 L62.2373047,3.85498056 L103.092754,3.85498056 Z M4.22314453,59 L0.00131722829,59 C0.000439569159,58.858205 0,58.7162903 0,58.5742574 C0,26.2245883 22.8028648,0 50.9316239,0 L54.0149949,0 L54.0149951,59 L50.0341797,59 L50.0341797,3.99951172 C17.3764648,8.11132812 4.41697789,35.8339232 4.22314453,59 Z" id="Oval-4" fill="#BDC3F7" sketch:type="MSShapeGroup"></path>
    </g>
</svg>